<svg id="wave" style="transform:rotate(180deg); transition: 0.3s" viewBox="0 0 1440 150" version="1.1" xmlns="http://www.w3.org/2000/svg"><defs><linearGradient id="sw-gradient-0" x1="0" x2="0" y1="1" y2="0"><stop stop-color="rgba(187, 14, 14, 1)" offset="0%"></stop><stop stop-color="rgba(187.066, 14.418, 14.418, 1)" offset="100%"></stop></linearGradient></defs><path style="transform:translate(0, 0px); opacity:1" fill="url(#sw-gradient-0)" d="M0,135L48,132.5C96,130,192,125,288,122.5C384,120,480,120,576,120C672,120,768,120,864,107.5C960,95,1056,70,1152,52.5C1248,35,1344,25,1440,37.5C1536,50,1632,85,1728,92.5C1824,100,1920,80,2016,65C2112,50,2208,40,2304,30C2400,20,2496,10,2592,27.5C2688,45,2784,90,2880,105C2976,120,3072,105,3168,92.5C3264,80,3360,70,3456,60C3552,50,3648,40,3744,42.5C3840,45,3936,60,4032,77.5C4128,95,4224,115,4320,105C4416,95,4512,55,4608,55C4704,55,4800,95,4896,107.5C4992,120,5088,105,5184,90C5280,75,5376,60,5472,57.5C5568,55,5664,65,5760,72.5C5856,80,5952,85,6048,77.5C6144,70,6240,50,6336,42.5C6432,35,6528,40,6624,37.5C6720,35,6816,25,6864,20L6912,15L6912,150L6864,150C6816,150,6720,150,6624,150C6528,150,6432,150,6336,150C6240,150,6144,150,6048,150C5952,150,5856,150,5760,150C5664,150,5568,150,5472,150C5376,150,5280,150,5184,150C5088,150,4992,150,4896,150C4800,150,4704,150,4608,150C4512,150,4416,150,4320,150C4224,150,4128,150,4032,150C3936,150,3840,150,3744,150C3648,150,3552,150,3456,150C3360,150,3264,150,3168,150C3072,150,2976,150,2880,150C2784,150,2688,150,2592,150C2496,150,2400,150,2304,150C2208,150,2112,150,2016,150C1920,150,1824,150,1728,150C1632,150,1536,150,1440,150C1344,150,1248,150,1152,150C1056,150,960,150,864,150C768,150,672,150,576,150C480,150,384,150,288,150C192,150,96,150,48,150L0,150Z"></path><defs><linearGradient id="sw-gradient-1" x1="0" x2="0" y1="1" y2="0"><stop stop-color="rgba(255, 179, 11, 1)" offset="0%"></stop><stop stop-color="rgba(255, 179, 11, 1)" offset="100%"></stop></linearGradient></defs><path style="transform:translate(0, 50px); opacity:0.9" fill="url(#sw-gradient-1)" d="M0,75L48,85C96,95,192,115,288,110C384,105,480,75,576,52.5C672,30,768,15,864,27.5C960,40,1056,80,1152,90C1248,100,1344,80,1440,67.5C1536,55,1632,50,1728,57.5C1824,65,1920,85,2016,80C2112,75,2208,45,2304,50C2400,55,2496,95,2592,102.5C2688,110,2784,85,2880,62.5C2976,40,3072,20,3168,17.5C3264,15,3360,30,3456,52.5C3552,75,3648,105,3744,112.5C3840,120,3936,105,4032,100C4128,95,4224,100,4320,97.5C4416,95,4512,85,4608,72.5C4704,60,4800,45,4896,50C4992,55,5088,80,5184,87.5C5280,95,5376,85,5472,70C5568,55,5664,35,5760,25C5856,15,5952,15,6048,32.5C6144,50,6240,85,6336,95C6432,105,6528,90,6624,72.5C6720,55,6816,35,6864,25L6912,15L6912,150L6864,150C6816,150,6720,150,6624,150C6528,150,6432,150,6336,150C6240,150,6144,150,6048,150C5952,150,5856,150,5760,150C5664,150,5568,150,5472,150C5376,150,5280,150,5184,150C5088,150,4992,150,4896,150C4800,150,4704,150,4608,150C4512,150,4416,150,4320,150C4224,150,4128,150,4032,150C3936,150,3840,150,3744,150C3648,150,3552,150,3456,150C3360,150,3264,150,3168,150C3072,150,2976,150,2880,150C2784,150,2688,150,2592,150C2496,150,2400,150,2304,150C2208,150,2112,150,2016,150C1920,150,1824,150,1728,150C1632,150,1536,150,1440,150C1344,150,1248,150,1152,150C1056,150,960,150,864,150C768,150,672,150,576,150C480,150,384,150,288,150C192,150,96,150,48,150L0,150Z"></path></svg>