<svg width="3000" height="214" viewBox="0 0 3000 214" fill="none" xmlns="http://www.w3.org/2000/svg">
<g clip-path="url(#clip0_4_6)">
<path d="M-283.333 162.655L11.9513 121.174C307.235 76.6269 897.804 11.2665 1488.37 4.06422C2078.94 -2.07105 2669.51 103.5 3260.08 103.5C3850.65 103.5 4441.21 -0.0710526 5031.78 -0.0710526C5622.35 -0.0710526 6212.92 74.6193 6803.49 87.1566C7394.06 98.6269 7984.62 50.6117 8575.19 55.9467C9165.76 61.2817 9756.33 125.302 10346.9 130.637C10937.5 135.972 11528 87.9569 12118.6 55.9467C12709.2 23.9366 13299.7 13.2665 13890.3 31.1388C14480.9 50.6117 15071.4 98.6269 15662 74.6193C16252.6 50.6117 16843.1 -50.7538 17433.7 -93.434C18024.3 -136.114 18614.9 -125.444 19205.4 -87.2987C19796 -50.7538 20386.6 13.2665 20977.1 18.6015C21567.7 23.9366 22158.3 -24.0787 22748.8 -6.20633C23339.4 13.2665 23930 98.6269 24520.5 111.964C25111.1 125.302 25701.7 61.2817 26292.2 49.8114C26882.8 37.2741 27473.4 74.6193 28063.9 62.082C28654.5 50.6117 29245.1 -13.4086 29835.6 -6.20633C30426.2 -0.0710502 31016.8 74.6193 31607.4 93.2919C32197.9 111.964 32788.5 74.6193 33379.1 80.7546C33969.6 87.9569 34560.2 135.972 35150.8 155.445C35741.3 173.317 36331.9 162.647 36922.5 130.637C37513 98.6269 38103.6 50.6117 38694.2 18.6015C39284.7 -13.4086 39875.3 -24.0787 40465.9 6.06422C41056.4 37.2741 41647 111.964 41942.3 149.31L42237.6 186.655V224H41942.3C41647 224 41056.4 224 40465.9 224C39875.3 224 39284.7 224 38694.2 224C38103.6 224 37513 224 36922.5 224C36331.9 224 35741.3 224 35150.8 224C34560.2 224 33969.6 224 33379.1 224C32788.5 224 32197.9 224 31607.4 224C31016.8 224 30426.2 224 29835.6 224C29245.1 224 28654.5 224 28063.9 224C27473.4 224 26882.8 224 26292.2 224C25701.7 224 25111.1 224 24520.5 224C23930 224 23339.4 224 22748.8 224C22158.3 224 21567.7 224 20977.1 224C20386.6 224 19796 224 19205.4 224C18614.9 224 18024.3 224 17433.7 224C16843.1 224 16252.6 224 15662 224C15071.4 224 14480.9 224 13890.3 224C13299.7 224 12709.2 224 12118.6 224C11528 224 10937.5 224 10346.9 224C9756.33 224 9165.76 224 8575.19 224C7984.62 224 7394.06 224 6803.49 224C6212.92 224 5622.35 224 5031.78 224C4441.21 224 3850.65 224 3260.08 224C2669.51 224 2078.94 224 1488.37 224C897.804 224 307.235 224 11.9513 224H-283.333V162.655Z" fill="#bb0e0e"/>
<path opacity="0.9" d="M0 0L125 3.51571C250 7.64286 500 13.7571 750 46.3157C1000 77.9571 1250 136.043 1500 142.616C1750 149.8 2000 107 2250 85.6C2500 64.2 2750 64.2 3000 74.9C3250 85.6 3500 107 3750 121.216C4000 136.043 4250 142.157 4500 153.316C4750 163.557 5000 178.843 5250 164.016C5500 149.8 5750 107 6000 78.4157C6250 50.4429 6500 35.1571 6750 28.5843C7000 21.4 7250 21.4 7500 49.9843C7750 77.9571 8000 136.043 8250 146.284C8500 157.443 8750 120.757 9000 121.216C9250 120.757 9500 157.443 9750 171.2C10000 184.957 10250 178.843 10500 167.684C10750 157.443 11000 142.157 11250 142.616C11500 142.157 11750 157.443 12000 142.616C12250 128.4 12500 85.6 12750 74.9C13000 64.2 13250 85.6 13500 99.8157C13750 114.643 14000 120.757 14250 110.516C14500 99.3572 14750 71.8429 15000 67.7157C15250 64.2 15500 85.6 15750 89.1157C16000 93.2429 16250 77.9571 16500 85.6C16750 93.2429 17000 120.757 17250 114.184C17500 107 17750 64.2 17875 42.8L18000 21.4V214H17875C17750 214 17500 214 17250 214C17000 214 16750 214 16500 214C16250 214 16000 214 15750 214C15500 214 15250 214 15000 214C14750 214 14500 214 14250 214C14000 214 13750 214 13500 214C13250 214 13000 214 12750 214C12500 214 12250 214 12000 214C11750 214 11500 214 11250 214C11000 214 10750 214 10500 214C10250 214 10000 214 9750 214C9500 214 9250 214 9000 214C8750 214 8500 214 8250 214C8000 214 7750 214 7500 214C7250 214 7000 214 6750 214C6500 214 6250 214 6000 214C5750 214 5500 214 5250 214C5000 214 4750 214 4500 214C4250 214 4000 214 3750 214C3500 214 3250 214 3000 214C2750 214 2500 214 2250 214C2000 214 1750 214 1500 214C1250 214 1000 214 750 214C500 214 250 214 125 214H0V0Z" fill="url(#paint0_linear_4_6)"/>
</g>
<defs>
<linearGradient id="paint0_linear_4_6" x1="0" y1="214" x2="0" y2="0" gradientUnits="userSpaceOnUse">
<stop stop-color="#FFB30B"/>
<stop offset="1" stop-color="#FFB30B"/>
</linearGradient>
<clipPath id="clip0_4_6">
<rect width="3000" height="214" fill="white"/>
</clipPath>
</defs>
</svg>
